<svg width="412" height="174" viewBox="0 0 412 174" fill="none" xmlns="http://www.w3.org/2000/svg">
<g filter="url(#filter0_d_204_1722)">
<path d="M56.9227 58.7834C54.8636 59.9658 52.4943 60.55 49.7983 60.55C46.9213 60.55 44.3545 59.8944 42.1168 58.5741C39.8721 57.2607 38.1233 55.3883 36.8752 52.9593C35.6247 50.5372 34.9972 47.7264 34.9972 44.5429C34.9972 41.3594 35.6247 38.4864 36.8752 36.085C38.1233 33.6836 39.8721 31.825 42.1168 30.5047C44.3545 29.1867 46.9213 28.5289 49.7983 28.5289C52.4943 28.5289 54.8636 29.1085 56.9227 30.2632C58.977 31.4156 60.566 33.15 61.7013 35.4617H73.1059C71.4488 30.5668 68.5483 26.7232 64.3902 23.9537C60.2392 21.182 55.3995 19.7973 49.8712 19.7973C45.1513 19.7973 40.8875 20.8439 37.0891 22.9486C33.2883 25.0509 30.2867 27.9883 28.0937 31.7514C25.8983 35.5169 24.7983 39.7838 24.7983 44.5429C24.7983 49.302 25.8983 53.5505 28.0937 57.2929C30.2867 61.0353 33.2883 63.9612 37.0891 66.0636C40.8875 68.1614 45.1513 69.2172 49.8712 69.2172C55.4442 69.2172 60.2957 67.8417 64.4302 65.0929C68.56 62.3442 71.4488 58.4959 73.1059 53.5505H61.7013C60.566 55.8645 58.977 57.608 56.9227 58.7834Z" fill="white"/>
<path d="M126.472 31.7514C124.234 27.9883 121.188 25.0394 117.335 22.914C113.488 20.791 109.229 19.7237 104.553 19.7237C99.8782 19.7237 95.6755 20.791 91.8042 22.914C87.9306 25.0394 84.8608 27.9883 82.5926 31.7514C80.3267 35.5169 79.1914 39.7562 79.1914 44.4716C79.1914 49.187 80.3267 53.4953 82.5926 57.2607C84.8608 61.0238 87.9306 63.9727 91.8042 66.0981C95.6755 68.2235 99.9229 69.2839 104.553 69.2839C109.184 69.2839 113.431 68.2235 117.3 66.0981C121.171 63.9727 124.234 61.0238 126.472 57.2607C128.717 53.4953 129.84 49.2284 129.84 44.4716C129.84 39.7147 128.717 35.5169 126.472 31.7514ZM117.723 52.9984C116.449 55.4436 114.684 57.3274 112.416 58.6454C110.148 59.9657 107.524 60.6213 104.553 60.6213C101.582 60.6213 98.945 59.9657 96.6556 58.6454C94.3662 57.3274 92.5822 55.4436 91.3082 52.9984C90.0343 50.5487 89.3973 47.7057 89.3973 44.4716C89.3973 41.2375 90.0343 38.4036 91.3082 35.9815C92.5822 33.5525 94.3662 31.6916 96.6556 30.4012C98.945 29.1085 101.575 28.4575 104.553 28.4575C107.531 28.4575 110.148 29.1085 112.416 30.4012C114.684 31.6916 116.449 33.5525 117.723 35.9815C119.004 38.4036 119.637 41.2352 119.637 44.4716C119.637 47.708 119.004 50.5487 117.723 52.9984Z" fill="white"/>
<path d="M223.12 20.4206L209.593 58.8892L195.995 20.4206H185.366L203.503 68.8031H215.54L233.674 20.4206H223.12Z" fill="white"/>
<path d="M284.492 31.7514C282.252 27.9883 279.205 25.0394 275.353 22.914C271.505 20.791 267.246 19.7237 262.571 19.7237C257.896 19.7237 253.693 20.791 249.824 22.914C245.948 25.0394 242.878 27.9883 240.612 31.7514C238.349 35.5169 237.216 39.7562 237.216 44.4716C237.216 49.187 238.349 53.4953 240.612 57.2607C242.878 61.0238 245.948 63.9727 249.824 66.0981C253.693 68.2235 257.945 69.2839 262.571 69.2839C267.197 69.2839 271.449 68.2235 275.32 66.0981C279.194 63.9727 282.252 61.0238 284.492 57.2607C286.736 53.4953 287.858 49.2284 287.858 44.4716C287.858 39.7147 286.736 35.5169 284.492 31.7514ZM275.748 52.9984C274.474 55.4436 272.702 57.3274 270.433 58.6454C268.167 59.9657 265.549 60.6213 262.571 60.6213C259.593 60.6213 256.965 59.9657 254.673 58.6454C252.384 57.3274 250.602 55.4436 249.326 52.9984C248.052 50.5487 247.415 47.7057 247.415 44.4716C247.415 41.2375 248.052 38.4036 249.326 35.9815C250.602 33.5525 252.384 31.6916 254.673 30.4012C256.965 29.1085 259.597 28.4575 262.571 28.4575C265.544 28.4575 268.167 29.1085 270.433 30.4012C272.702 31.6916 274.474 33.5525 275.748 35.9815C277.022 38.4036 277.659 41.2352 277.659 44.4716C277.659 47.708 277.022 50.5487 275.748 52.9984Z" fill="white"/>
<path d="M89.0471 137.135V96.447H79.1303V144.829H105.336V137.135H89.0471Z" fill="white"/>
<path d="M141.461 96.447V126.393C141.461 129.671 140.587 132.178 138.842 133.91C137.094 135.645 134.612 136.51 131.403 136.51C128.195 136.51 125.785 135.645 124.037 133.91C122.288 132.178 121.418 129.671 121.418 126.393V96.447H111.497V126.32C111.497 130.433 112.371 133.91 114.12 136.753C115.869 139.597 118.243 141.733 121.237 143.162C124.239 144.597 127.579 145.315 131.262 145.315C134.945 145.315 138.379 144.597 141.426 143.162C144.472 141.733 146.902 139.597 148.719 136.753C150.536 133.91 151.451 130.433 151.451 126.32V96.447H141.461Z" fill="white"/>
<path d="M169.568 13.7224V53.6287L147.112 20.3493H137.202V68.7916H147.112V35.6066L169.568 68.7916H179.483V4.02247L169.568 13.7224ZM371.103 78.8481L365.192 88.5481L363.901 90.6574L365.257 92.884L373.101 80.3341H377.071L367.215 96.1066L368.574 98.3401L379.823 80.3341L380.754 78.8481H371.103ZM384.727 78.8481L370.53 101.558L371.916 103.835L386.605 80.3341H390.57L373.872 107.056L375.233 109.289L394.265 78.8481H384.727ZM398.23 78.8481L377.189 112.507L378.545 114.738L400.052 80.3341H404.017L380.503 117.956L381.767 120.038L400.954 88.5481L404.367 82.9333L406.866 78.8481H398.23ZM401.088 155.185H401.072L391.844 140.054L381.633 123.288L380.289 125.528L403.954 163.404H399.988L378.343 128.769L376.996 131.017L397.236 163.404L398.167 164.89H407L401.088 155.185ZM375.05 134.26L373.7 136.507L390.507 163.404H386.541L371.757 139.746L370.379 142.039L384.663 164.89H394.201L375.05 134.26ZM379.762 163.404L368.435 145.278L367.088 147.525L377.01 163.404H373.045L365.145 150.764L363.997 152.676L363.932 152.784L363.885 152.857L365.311 155.185L371.199 164.89H380.693L379.762 163.404ZM380.554 121.547L366.136 97.834V97.8386L364.171 94.6206L364.176 94.6114L362.834 92.4032L362.829 92.4124L360.465 88.5481L354.553 78.8481L14.9121 78.7561V10.7046H166.141L176.06 1H5V88.4584L324.704 88.5481L344.947 121.772L324.591 155.185L184.29 155.093L174.375 164.798L354.464 164.89L360.352 155.185L362.371 151.889L362.352 151.877L380.554 121.547ZM357.877 142.985L350.442 155.185H334.525L354.863 121.772L334.637 88.5481H350.555L357.877 100.564L362.829 108.719L367.582 116.505L367.707 116.705L370.8 121.772L362.829 134.833L357.877 142.985ZM158.399 96.4401V104.275H171.571V161.17L181.464 151.486V144.834H181.485V104.275H194.658V96.4401H158.399Z" fill="white"/>
<path d="M201.878 96.447V144.829H211.793V96.447H201.878Z" fill="white"/>
<path d="M266.44 107.78C264.195 104.015 261.149 101.066 257.303 98.9427C253.456 96.8173 249.192 95.7569 244.514 95.7569C239.837 95.7569 235.643 96.8173 231.767 98.9427C227.898 101.066 224.829 104.015 222.56 107.78C220.295 111.55 219.159 115.783 219.159 120.498C219.159 125.213 220.295 129.522 222.56 133.287C224.829 137.053 227.898 139.999 231.767 142.124C235.643 144.25 239.891 145.315 244.514 145.315C249.138 145.315 253.394 144.25 257.268 142.124C261.139 139.999 264.195 137.053 266.44 133.287C268.68 129.522 269.803 125.255 269.803 120.498C269.803 115.741 268.68 111.55 266.44 107.78ZM257.691 129.025C256.417 131.47 254.645 133.354 252.379 134.672C250.115 135.992 247.492 136.648 244.514 136.648C241.536 136.648 238.908 135.992 236.619 134.672C234.327 133.354 232.545 131.47 231.271 129.025C229.995 126.575 229.358 123.732 229.358 120.498C229.358 117.264 229.995 114.437 231.271 112.008C232.545 109.579 234.327 107.718 236.619 106.428C238.908 105.135 241.543 104.489 244.514 104.489C247.485 104.489 250.115 105.135 252.379 106.428C254.645 107.718 256.417 109.579 257.691 112.008C258.967 114.437 259.604 117.268 259.604 120.498C259.604 123.727 258.967 126.575 257.691 129.025Z" fill="white"/>
<path d="M309.541 96.3757V129.648L287.087 96.3757H277.17V144.83H287.087V111.626L309.541 144.83H319.451V96.3757H309.541Z" fill="white"/>
<path d="M401.088 155.185H401.072L391.844 140.054L391.86 140.038L401.088 155.185Z" fill="white"/>
<path d="M37.2983 121.871L25.5528 134.495H35.0841L35.1311 134.541V126.851L36.4592 125.285V135.794H11.1466V133.545L28.5991 114.782C30.2021 113.061 30.2256 110.393 28.6555 108.712C27.7035 107.688 26.4343 107.095 25.1767 107.079C23.1153 107.053 20.7225 108.095 20.1819 111.113L18.875 110.89C19.552 107.113 22.6311 105.779 25.1039 105.779C25.1344 105.779 25.1673 105.781 25.1979 105.781C26.8174 105.8 28.4369 106.554 29.638 107.84C31.6618 110.014 31.6383 113.446 29.5816 115.661L12.0562 134.497H13.6358L30.5288 116.339C32.964 113.719 33.0016 109.662 30.6111 107.099C29.1679 105.551 27.2428 104.647 25.3272 104.622H25.2167C22.1657 104.622 18.3955 106.299 17.6504 111.056L16.3388 110.858C17.1662 105.581 21.4559 103.274 25.346 103.322C27.6236 103.355 29.8989 104.41 31.5913 106.225C34.4377 109.275 34.4025 114.101 31.509 117.213L15.4292 134.497H17.0087L32.4586 117.892C35.7282 114.375 35.7775 108.926 32.5691 105.484C30.6299 103.41 28.0467 102.198 25.48 102.163H25.3295C20.8636 102.163 16.0098 104.882 15.1213 111.003L13.8073 110.819C14.8063 103.927 20.2853 100.863 25.3295 100.863H25.4964C28.4298 100.905 31.3633 102.269 33.5469 104.608C37.2137 108.541 37.1667 114.757 33.4364 118.766L18.7998 134.497H20.3794L34.3837 119.444C38.49 115.03 38.5488 108.192 34.52 103.872C32.0896 101.268 28.8482 99.7501 25.6257 99.7087C19.9234 99.6328 13.6781 103.081 12.5851 110.952L11.2664 110.777C12.4676 102.119 19.3381 98.3263 25.6398 98.4091C29.2314 98.4574 32.8206 100.127 35.4955 102.996C39.9826 107.805 39.9262 115.414 35.3638 120.323L22.1751 134.499H23.7547L36.3087 120.999C41.2495 115.688 41.32 107.456 36.4709 102.26C33.5492 99.129 29.6498 97.3027 25.7714 97.2521H25.5458C18.7058 97.2521 11.3182 101.448 10.0512 110.906L8.7326 110.738C9.37194 105.963 11.5697 102.041 15.0813 99.3913C18.0876 97.1233 21.8884 95.9087 25.7879 95.9548C30.0329 96.0123 34.285 97.9904 37.4511 101.386C42.7609 107.076 42.688 116.075 37.2913 121.878L37.2983 121.871Z" fill="white"/>
<path d="M35.1313 134.497L35.1311 134.541L35.0865 134.497H35.1313Z" fill="white"/>
<path d="M38.7838 122.547V138.069H11.1466V136.77H37.4088L37.4558 136.816V124.114L38.7838 122.547Z" fill="white"/>
<path d="M37.4559 136.77V136.817L37.4088 136.77L37.4559 136.77Z" fill="white"/>
<path d="M41.1061 119.806V140.342H11.1466V139.042H39.7311L39.7781 139.088V121.372L41.1061 119.806Z" fill="white"/>
<path d="M39.7782 139.042V139.089L39.7311 139.042H39.7782Z" fill="white"/>
<path d="M45.7531 117.195V118.17L69.5872 118.195V119.495L45.7531 119.47V120.443L69.5872 120.468V121.768L45.7531 121.742V122.715L69.5872 122.741V124.04L45.7531 124.015V124.99L69.5872 125.016V126.315L45.7531 126.29V144.751H45.6638V144.889H11.1466V143.59H44.425V115.895L69.5872 115.921V117.22L45.7531 117.195Z" fill="white"/>
<path d="M43.4284 117.068V142.614H11.1466V141.317H42.1027V118.635L43.4284 117.068Z" fill="white"/>
<path d="M60.8269 148.344C60.8269 149.575 60.5213 150.75 59.9219 151.836C59.9055 151.875 59.8726 151.928 59.8397 151.979C58.521 154.249 56.0224 155.675 53.3311 155.675C52.445 155.675 51.5753 155.523 50.7455 155.224H50.7361L50.621 155.178C48.0754 154.207 46.2725 151.969 45.9106 149.336H45.8965L45.7343 148.1H47.1305L47.2104 149.149H47.2198C47.5113 151.286 48.9521 153.108 50.9971 153.927H50.9994L51.1146 153.973C51.8221 154.24 52.5672 154.375 53.3288 154.375C55.5429 154.375 57.5996 153.202 58.695 151.316C58.7208 151.275 58.7349 151.254 58.7443 151.236C59.245 150.327 59.4988 149.359 59.4988 148.344C59.4988 147.84 59.4354 147.344 59.3108 146.861H59.3084L59.2614 146.693C59.0993 146.118 58.843 145.568 58.5046 145.066L58.3941 144.901C57.6184 143.811 56.4855 142.992 55.188 142.596C54.591 142.412 53.9657 142.318 53.3288 142.318L47.6758 142.35V141.05L53.3241 141.018C54.0997 141.018 54.8613 141.131 55.5876 141.358C57.2259 141.858 58.655 142.913 59.5976 144.33L59.7104 144.51C60.0465 145.032 60.3051 145.595 60.486 146.182L60.5001 146.191L60.5495 146.375V146.391C60.7328 147.029 60.8245 147.684 60.8245 148.347L60.8269 148.344Z" fill="white"/>
<path d="M63.2009 148.344C63.2009 149.911 62.7989 151.456 62.0139 152.94C61.981 153.004 61.941 153.067 61.9011 153.131C60.1617 156.128 56.871 158.005 53.3217 158.005C52.1371 158.005 50.9783 157.8 49.8735 157.396H49.8594L49.7442 157.354C46.4982 156.114 44.1665 153.308 43.5883 149.975C43.5718 149.874 43.5554 149.773 43.5413 149.669L43.5342 149.63L43.3321 148.1H44.7659L44.7847 148.344L44.8881 149.724V149.74C45.3793 152.595 47.3608 155.013 50.1274 156.103H50.1344L50.2472 156.149C51.2298 156.519 52.264 156.708 53.3194 156.708C56.3891 156.708 59.2403 155.082 60.7611 152.466C60.7987 152.409 60.8175 152.372 60.8363 152.34C61.5226 151.045 61.8729 149.699 61.8729 148.344C61.8729 147.629 61.7788 146.918 61.5931 146.23V146.223L61.5391 146.056C61.3134 145.257 60.9585 144.496 60.4908 143.799L60.3803 143.626C59.3084 142.09 57.7219 140.933 55.8932 140.369C55.0564 140.112 54.1914 139.983 53.317 139.983L47.6758 140.015V138.716L53.3147 138.683C54.3277 138.683 55.329 138.833 56.2927 139.132C58.4623 139.804 60.3427 141.195 61.579 143.049L61.6096 143.091C61.6166 143.104 61.6237 143.116 61.6284 143.13C62.1502 143.912 62.5404 144.76 62.7989 145.651C62.8154 145.683 62.8248 145.722 62.8366 145.759C63.0763 146.601 63.1985 147.47 63.1985 148.347L63.2009 148.344Z" fill="white"/>
<path d="M65.5725 148.344C65.5725 150.29 65.0742 152.209 64.0988 154.051C64.0565 154.129 64.0095 154.203 63.9624 154.281C61.7976 158.007 57.7101 160.337 53.3052 160.337C51.8244 160.337 50.3789 160.078 48.9968 159.572H48.9827L48.8675 159.526C44.7048 157.938 41.7549 154.283 41.1649 149.975H41.1625V149.943L40.9134 148.1H42.3472L42.366 148.344L42.4718 149.773V149.803C43.003 153.605 45.5956 156.846 49.2553 158.279H49.2624L49.3776 158.325C50.6327 158.799 51.9537 159.04 53.3029 159.04C57.2329 159.04 60.8762 156.961 62.8177 153.616C62.8648 153.545 62.8906 153.499 62.9165 153.451C63.7932 151.797 64.2398 150.079 64.2398 148.344C64.2398 147.413 64.1176 146.49 63.8708 145.593L63.8637 145.586L63.8167 145.418C63.5252 144.395 63.074 143.422 62.4699 142.527L62.3594 142.354C60.9914 140.363 58.9488 138.872 56.5936 138.145C55.5241 137.814 54.417 137.648 53.2982 137.648L47.6687 137.68V136.381L53.2935 136.349C54.551 136.349 55.7968 136.537 56.9908 136.908C59.6845 137.738 62.0186 139.468 63.5558 141.766L63.5746 141.798C63.5887 141.821 63.6005 141.839 63.6122 141.862C64.2586 142.838 64.7499 143.889 65.0719 145C65.0977 145.055 65.1095 145.101 65.1142 145.129C65.4104 146.171 65.5631 147.252 65.5631 148.34L65.5725 148.344Z" fill="white"/>
<path d="M67.9465 148.344C67.9465 150.667 67.3519 152.958 66.1837 155.162C66.1367 155.249 66.0802 155.341 66.0238 155.429C63.4383 159.889 58.5563 162.672 53.2958 162.672C51.5212 162.672 49.7818 162.359 48.1247 161.75H48.1106L47.9955 161.704C43.057 159.82 39.5454 155.491 38.805 150.384H38.7979L38.53 148.344L38.4971 148.1H39.9544L39.9732 148.344L40.1048 150.134C40.7559 154.771 43.9173 158.718 48.3809 160.455H48.395L48.5102 160.501C50.0357 161.076 51.6458 161.37 53.2935 161.37C58.0768 161.37 62.5169 158.838 64.8815 154.764C64.9356 154.679 64.9708 154.621 65.0014 154.562C66.0708 152.549 66.6138 150.453 66.6138 148.342C66.6138 147.192 66.4587 146.053 66.1555 144.951L66.1461 144.942L66.0991 144.779C65.7441 143.532 65.1941 142.345 64.4608 141.255L64.3503 141.08C62.6814 138.642 60.1852 136.813 57.3035 135.918C56.0036 135.518 54.6521 135.314 53.2911 135.314L47.6734 135.346V134.046L53.2888 134.014C54.7884 134.014 56.2763 134.237 57.7054 134.679C60.9209 135.675 63.7062 137.738 65.542 140.487L65.5655 140.524C65.5796 140.542 65.596 140.57 65.6078 140.602C66.3835 141.768 66.9711 143.031 67.3613 144.36C67.3871 144.422 67.4012 144.473 67.4083 144.501V144.507C67.7632 145.752 67.9418 147.045 67.9418 148.344H67.9465Z" fill="white"/>
<path d="M70.3182 148.344C70.3182 151.144 69.6248 153.814 68.2639 156.282C68.2216 156.37 68.1534 156.478 68.0852 156.581C65.0789 161.764 59.4001 165 53.2864 165C51.2133 165 49.1848 164.639 47.2574 163.921H47.2386L47.1234 163.875C41.3318 161.667 37.2301 156.567 36.4169 150.566L36.1207 148.344L36.0878 148.1H37.5569L37.5757 148.344L37.7285 150.394C38.4759 155.896 42.2226 160.579 47.516 162.631H47.5301L47.6452 162.677C49.4481 163.355 51.3449 163.7 53.2864 163.7C58.9253 163.7 64.1599 160.719 66.9476 155.912C67.0064 155.82 67.051 155.753 67.0863 155.684C68.3532 153.389 68.9902 150.927 68.9902 148.344C68.9902 146.982 68.8045 145.63 68.4425 144.321L68.4331 144.312L68.3861 144.146C67.9677 142.674 67.3166 141.276 66.4516 139.99L66.3412 139.815C64.3667 136.912 61.4121 134.745 58.0133 133.703C56.4925 133.23 54.9036 132.988 53.2841 132.988L47.6758 133.02V131.721L53.2771 131.688C55.0399 131.688 56.7652 131.948 58.4153 132.464C62.1455 133.607 65.3822 136.004 67.5282 139.212L67.5517 139.252C67.5658 139.27 67.5822 139.3 67.5987 139.337C68.5083 140.698 69.1923 142.175 69.6436 143.725C69.6742 143.797 69.6906 143.854 69.6977 143.884C70.109 145.336 70.3182 146.835 70.3182 148.347V148.344Z" fill="white"/>
</g>
<defs>
<filter id="filter0_d_204_1722" x="0" y="0" width="412" height="174" filterUnits="userSpaceOnUse" color-interpolation-filters="sRGB">
<feFlood flood-opacity="0" result="BackgroundImageFix"/>
<feColorMatrix in="SourceAlpha" type="matrix" values="0 0 0 0 0 0 0 0 0 0 0 0 0 0 0 0 0 0 127 0" result="hardAlpha"/>
<feOffset dy="4"/>
<feGaussianBlur stdDeviation="2.5"/>
<feComposite in2="hardAlpha" operator="out"/>
<feColorMatrix type="matrix" values="0 0 0 0 0 0 0 0 0 0 0 0 0 0 0 0 0 0 0.25 0"/>
<feBlend mode="normal" in2="BackgroundImageFix" result="effect1_dropShadow_204_1722"/>
<feBlend mode="normal" in="SourceGraphic" in2="effect1_dropShadow_204_1722" result="shape"/>
</filter>
</defs>
</svg>